<svg width="73" height="14" viewBox="0 0 73 14" fill="none" xmlns="http://www.w3.org/2000/svg">
<path d="M1.036 4.37L0.91 5.21H2.492L1.918 8.808H0.504L0.378 9.648H1.792L1.414 12H2.352L2.73 9.648H4.844L4.466 12H5.404L5.782 9.648H7.364L7.49 8.808H5.908L6.482 5.21H7.896L8.022 4.37H6.608L6.986 2.004H6.062L5.684 4.37H3.556L3.934 2.004H3.01L2.632 4.37H1.036ZM2.856 8.808L3.43 5.21H5.544L4.97 8.808H2.856ZM19.5105 9.06H11.5305V13.442H12.5105V12.84H18.5305V13.442H19.5105V9.06ZM12.5105 11.93V9.97H18.5305V11.93H12.5105ZM13.6305 2.816C12.7345 4.118 11.6005 5.168 10.2145 5.966L10.8585 6.75C11.4745 6.358 12.0625 5.924 12.6085 5.434C13.2105 5.966 13.8685 6.442 14.5825 6.862C13.0985 7.45 11.2225 7.912 8.96853 8.276L9.34653 9.172C11.8665 8.738 13.9525 8.15 15.6045 7.394C17.3405 8.234 19.3145 8.724 21.5545 8.892L21.7785 7.982C19.8885 7.842 18.1805 7.478 16.6545 6.876C17.7325 6.26 18.5585 5.56 19.1325 4.762V3.95H13.9665C14.1905 3.656 14.4005 3.348 14.6105 3.026L13.6305 2.816ZM15.6185 6.414C14.7505 5.98 13.9385 5.462 13.1965 4.846L13.2385 4.804H17.9285C17.3545 5.392 16.5845 5.938 15.6185 6.414ZM21.0785 1.612H15.9125C15.7445 1.192 15.5905 0.8 15.4225 0.463999L14.3165 0.631999C14.4985 0.926 14.6665 1.248 14.8345 1.612H9.71053V4.258H10.7325V2.522H20.0565V4.258H21.0785V1.612ZM33.5805 3.278V6.008H25.5865V3.278H33.5805ZM25.5865 6.988H34.6025V2.284H30.1785C29.9265 1.612 29.6745 1.01 29.4225 0.478L28.3445 0.645999C28.6385 1.15 28.9045 1.696 29.1565 2.284H24.5925V6.666C24.5645 9.172 23.9905 11.216 22.8565 12.784L23.5985 13.456C24.8585 11.65 25.5165 9.494 25.5865 6.988ZM41.1965 1.626H37.5565V12.336H38.5365V11.202H41.1965V1.626ZM38.5365 10.264V6.778H40.2305V10.264H38.5365ZM38.5365 5.826V2.564H40.2305V5.826H38.5365ZM48.2105 2.06V4.202H43.3245V2.06H48.2105ZM43.3245 5.112H49.1905V1.122H42.3445V6.19C42.3305 8.878 41.8685 11.062 40.9585 12.756L41.7425 13.456C42.7785 11.426 43.3105 9.004 43.3245 6.19V5.112ZM45.4105 9.102C46.8245 8.85 48.1545 8.416 49.4005 7.8L49.0645 6.862C48.0005 7.478 46.7825 7.912 45.4105 8.178V6.274H44.4305V11.748C44.4305 12.7 44.8785 13.19 45.7745 13.19H48.0005C48.5325 13.19 48.9245 13.064 49.1625 12.826C49.4425 12.546 49.6385 11.748 49.7365 10.432L48.7985 10.138C48.7425 11.174 48.6305 11.804 48.4765 12.028C48.3365 12.196 48.1265 12.28 47.8185 12.28H46.0545C45.6205 12.28 45.4105 12.028 45.4105 11.538V9.102ZM51.2065 4.398V5.364H53.1385C52.6905 6.96 51.9345 8.374 50.8705 9.62L51.3045 10.74C52.1165 9.62 52.7745 8.374 53.2505 7.002V13.358H54.2165V7.03C54.6365 7.52 55.1545 8.178 55.7425 9.018L56.3025 8.178C55.6025 7.422 54.9165 6.75 54.2165 6.134V5.364H55.9385V4.398H54.2165V2.242C54.9305 2.102 55.6025 1.934 56.2185 1.766L55.8685 0.814C54.5245 1.234 52.9985 1.514 51.2625 1.668L51.4585 2.62C52.0745 2.564 52.6625 2.48 53.2505 2.396V4.398H51.2065ZM59.1585 13.33C59.9565 13.33 60.3625 12.91 60.3625 12.07V4.664H59.3265V11.818C59.3265 12.224 59.1445 12.434 58.8085 12.434C58.4305 12.434 58.0245 12.406 57.6045 12.364L57.8145 13.33H59.1585ZM57.3945 6.68C57.0445 8.304 56.4985 9.802 55.7425 11.146L56.6105 11.692C57.3525 10.334 57.9265 8.724 58.3325 6.862L57.3945 6.68ZM62.1825 6.582L61.2725 6.876C61.8605 8.318 62.4065 9.97 62.8965 11.832L63.8205 11.426C63.3585 9.704 62.8125 8.094 62.1825 6.582ZM58.3465 3.474H62.3505C62.1825 4.286 61.9725 5.014 61.7205 5.672L62.7005 5.966C62.9805 5.042 63.1905 4.104 63.3585 3.152V2.494H58.7245C58.9205 1.906 59.0885 1.29 59.2145 0.645999L58.2205 0.519999C57.8845 2.312 57.2265 3.824 56.2745 5.056L56.8905 5.854C57.4645 5.154 57.9545 4.356 58.3465 3.474ZM65.4305 4.37L65.3045 5.21H66.8865L66.3125 8.808H64.8985L64.7725 9.648H66.1865L65.8085 12H66.7465L67.1245 9.648H69.2385L68.8605 12H69.7985L70.1765 9.648H71.7585L71.8845 8.808H70.3025L70.8765 5.21H72.2905L72.4165 4.37H71.0025L71.3805 2.004H70.4565L70.0785 4.37H67.9505L68.3285 2.004H67.4045L67.0265 4.37H65.4305ZM67.2505 8.808L67.8245 5.21H69.9385L69.3645 8.808H67.2505Z" fill="#4A86FF"/>
</svg>
